<svg id="Layer_1" data-name="Layer 1" xmlns="http://www.w3.org/2000/svg" viewBox="0 0 929.41 461.52"><defs><style>.cls-1{fill:#fff;stroke-miterlimit:10;stroke-width:2.3px;}.cls-1,.cls-2{stroke:#231f20;}.cls-2{fill:none;stroke-linejoin:round;}</style></defs><g id="background"><path id="path10" class="cls-1" d="M325.51,21.2l.57.46c3.8-.83,2.91.44,5.23.75,3,.39,6.21-1.46,9.12-.95l1.77.84a4.58,4.58,0,0,1,3,3.33c-.27,3.41-2.69,3-.41,7.87a8.92,8.92,0,0,0-.65,3.53l.43.76.82.1c.44,1,.66,2.2,1.12,3.18s1.17,1.81,1.62,2.79c-.63,2.07-3.3,2.59-2.52,5.66l1.07,1.68c1.77,1.35,2.71.19,4.33.12,2.16-.09,3.35,1.51,5.78,0a12.69,12.69,0,0,0,1.82-3.55l.94-.53,1.21.42a3.59,3.59,0,0,0,1.87-1.24l2.27.23a5.36,5.36,0,0,1,1.33,1.66l1.18.07a5.73,5.73,0,0,0,3.13,1.67,8.35,8.35,0,0,0,2.88-1.95,3.76,3.76,0,0,1,1.88.8,7.4,7.4,0,0,0,3.62-1.75,4.34,4.34,0,0,0,2.62.12l.59-.5c.37-2.24-.48-3.31-1.38-5.12A8.59,8.59,0,0,1,384,38.06a22.58,22.58,0,0,0,2.33-.12c.49-1.9,1-3.39-.29-5.13,0-1.52,1.38-6,2.71-6.73-.2-.75-.52-3,0-3.65,3.28-.6,3.15-6.41,7.25-4.65l1-.62c1.61.18,3.45-1,4.95-.18a3.81,3.81,0,0,0,1.37,1.12,26.53,26.53,0,0,1,5.42-1.93,2.75,2.75,0,0,0,1.23-.43c.09-1.59,0-6.55,1.59-7.34,3.07-.34,5-1.62,5.08-4.81,1.29-1,6.94-2.48,8.65-2.44,1.75.38,2.27,3.07,3.71,4,.23.16,1.94.67,2.33.86.74.35,3.51,2.2,3.89,3.05,1.27,2.81,1.24,6.21,2,9.15a32.9,32.9,0,0,0,1.27,3.09c1.81,4.81,2.82,11.09,6.63,14.81l1.06-.27,1.05.62c.33,1.14,1.37,3.66,2.6,4,1.07,0,2.31-1.48,3.44-1.9l.56.22c.19,2.33-.57,3.41,1,5.6-.78,1.85-1.56,3.71-2.4,5.53l3.64.58c2,.32,4.72.09,6.56.69,1,.33,3.29,2.08,3.52,3.26,2.13-.41,3.88-3,4.8-4.84l3.52-1a6.8,6.8,0,0,1,3.76,1.82,35.31,35.31,0,0,1-.15,4.64c.38,1,2.11,5.48,2,6.76-.06,1-1,2.65-.95,3.63a32.16,32.16,0,0,0,1.52,5.2c-.66,1.81-2.24,4.82-1.59,6.7l1.83.39a7.17,7.17,0,0,1,2.1,3.55l-1,1.32A7,7,0,0,0,478,85.52c-.48,4.63-.95,2.6-2.77,5.38-1.27,1.94-.75,4.58-1.59,6.7l.53,1.92c1.15.26,3.41.7,3.93,2a8.65,8.65,0,0,0,2.58-1.28c1.32.24,4.81,1.19,5.73,2,2.61-1.63,3.9.51,7.79-3.31,2.6-2.55,1.88-5.18,6.24-6.89,3.59-.45,6,1.37,9.24,1a4,4,0,0,1,1.78,2l1.67.74a33,33,0,0,1,1.4,4,111.93,111.93,0,0,0,10.34,5.92l1.56-.65,0-1.61-.81-1.17c-.25-2.85,2.24-6,3.44-8.44L528,91.24a22.65,22.65,0,0,1,.73-4.32c.46-1.09,1.86-2.09,2.25-3.19,1.09-3,2.55-10.3,5-12.11l1.48,2.73c.76-.58,1.6-1.08,2.39-1.61-.21-3.74,2.3-4.2,3.2-7.18,1.16-.21,3.61-1.22,4.12-2.45,1.82,1.26,4.64.34,6.65,0l1.31.61c2.31-.62,5.32-.14,7.59.49l1.19-1a15.34,15.34,0,0,0,.49-7.49l.8-1.31a5.23,5.23,0,0,1-1.25-2.21l.74-2,2-.32,1,1.16c2.23.69,2.46.75,4.66-.17l1.28.26.14,1.77.81,1.17c1.74.17,3.21-.61,4.76-1.23.23-.57.46-1.13.73-1.68l-.2-.54.25-.58,1-.16.76.4.82,1.42.55-1.27-.21-.66-.83-.74.25-1.53.72-.26,1.64.8L585.3,47a13.21,13.21,0,0,1,4.59,1c.87,1.84,3.62,2.88,5.47,3.32l.28,1.4c3,1.41,6.16,2.44,9.27,3.59A6.86,6.86,0,0,0,608,54.86l1.62.06.79-1.48-.12-1.58A11.32,11.32,0,0,1,612,50.14l-.47-1.57.28-1.08.86-.59.54,0A3.88,3.88,0,0,1,615,49l1.81.05.61,1,.92.29c2.65-.54,7-4.74,9-4.19l1.54-2.44.61.34a7.1,7.1,0,0,1-.67,3.4l.72.87,2.34.15.36.43v2l1.78.47a3.6,3.6,0,0,0-1.36,2.2,5,5,0,0,0,1.95,2.48l-.32,1.42a2.76,2.76,0,0,0,1.17,1.68,7.46,7.46,0,0,0,3.32-.56l-.8,2.06.25.6a5,5,0,0,0,2.93-.54l.82.53.32.65-1.06,1.62.89,1.75,1.59,0,2,2.7c1.62.9,5-2.42,6-3.32A8.21,8.21,0,0,0,657,63.16l1.14,1a2.12,2.12,0,0,0-.13,2.31,15.09,15.09,0,0,1,1.58,3.1c1,3.72.17,3.44,4,5.58l.08,1.24q3.23-1.61,6.42-3.27A5.89,5.89,0,0,1,673,74a9.19,9.19,0,0,0-.14-4.6,6.22,6.22,0,0,1,2.75-1.78A7.85,7.85,0,0,0,676.8,64c1.71-1.53,3.48-3,5.27-4.43l1.66.6a6.72,6.72,0,0,1,2.14-.31l.57.49c1.16-1,2.51-.4,3.62-2.19l.44-1.62c-1.23-.89-2-2.18-3.09-3.17-.6-.55-1.51-.9-2.08-1.47a32.27,32.27,0,0,1-2.58-3.72l.23-1.79c1.1-1.54,5.2-1.66,7-2.24l2.21.74a7.63,7.63,0,0,1,2.91-2.31c2.69.23,5.32,2.73,6.1,5.28a13.4,13.4,0,0,1,4.33,2.92,16.46,16.46,0,0,1,3.21-.38c.31-1.28,1.63-2.38,2.29-3.52a26.69,26.69,0,0,0-.71-2.62c1.12-1.92,5.09-2.08,7.24-4.88L717,38a5.52,5.52,0,0,1,2.47-.87c1.35.56,2.59,1.55,3.91,2.06.07,0,5.61.09,6.49.13,1.31,1.4,3.35,1.95,4.36,3.64l2.21.75a23.63,23.63,0,0,1,3.17-1.07,2.55,2.55,0,0,1,.56.32,23.85,23.85,0,0,0,5.51,4.63,7.09,7.09,0,0,0,2.82-.88,20.16,20.16,0,0,0,2.9.36l1.38-1,.45-1.45,1.21-.78A11.35,11.35,0,0,1,757.25,46l1.63.26.87-.59-.1-1.59.65-1.1a7.64,7.64,0,0,1,2.32-.31,15.06,15.06,0,0,0,2.74-2.3l1.28.28L767.8,42l2,.41a39.94,39.94,0,0,1,6.29-3l1.1.29c3.65,3,2.56,7.5,8.38,7.86l2.28-.84a30.18,30.18,0,0,1,3.84,1l.13,2.3c.77,1.86,4.68,3.34,6.24,5.32a29.28,29.28,0,0,0,1,4.91l1.83.61.59.85.53,0c.64-1.11.47-2.38.69-3.58.46-2.44,5.47-4.33,7.42-5.38l1.09.12a20.59,20.59,0,0,1,2.41,4.48c1.17,0,3.8.29,4.73,1.16a14.31,14.31,0,0,0,2.17,3.43c2.36-.09,4.45,0,6.2,1.79l2.84-.5,1.48.62c1.45,1.83,1.58,4.38,2.5,6.43,1.26,2.83,3.32,5,5.41,7.17.54.57,1.55.88,2,1.48.8,1,1.53,3.22.77,4.39l.22.7.75.67c.93,2.38-.85,6.65.35,9.91,2.9,3.24,8.57,2,11.54,5.07l4.84.11,1.43,3.48c2.18.06,6,.9,7.13,3,1.48-.41,2.42-1.91,4-2.32a3.9,3.9,0,0,1,2.39,1.3c1.05,1.92-.14,2.64-.49,4.27,0,.15.1,2,.11,2.3,1.08.62,3.42.41,4.68.66a39.89,39.89,0,0,1,9.1,3.27l3.45-2.47,5.53-.27c.46.78.85,1.91,1.37,2.6.41.53,1.14,1,1.51,1.52,1.54,2.35,2.35,6.09,5.51,6.83,1,.24,5.86,0,7.31,0,1.09,1.1,3.07,2.83,4.62,3.15,2.09-1.8,9.28-1.29,11.09.56l-.13,1.18-1.55,1c-.21,3.31.31,6.79,0,10-.22,2.17-2.25,3.94-1.93,6.76a7.76,7.76,0,0,1-2.57,3c-1.65.56-3.1-1.29-4.83-.73l-1.68,1.5a22.2,22.2,0,0,0-1.2,5.14l-2.78,1.88a29.89,29.89,0,0,1-1.45,3.08c-.62,1-2,1.81-2.58,2.82-.9,1.72-1.12,4.51,0,6.19a5.71,5.71,0,0,1-1.66,2l-.26,4.61a21.29,21.29,0,0,1-1.94,2.63c-.78.73-1.89,1.27-2.61,2-3.49,3.68-1.82,13.52-1.67,18.34-2.53,3-6.67,6.2-6,10.61l2.12,1.17c1.51,3.58-1.32,8-1.82,11.67-2.62,3.44-9.94,6.53-14,9.38-.19.14-1.69,1.14-1.77,1.24a26.32,26.32,0,0,0-3.92,7.34c-3,1.58-7.86,6-9.19,9.2a30.73,30.73,0,0,0-1.05,4.33,17.47,17.47,0,0,0,.57,11.24c-1.89,3.4-1.74,9-1.88,12.8-.15,4.08-1.54,4.22.11,8.4a29.27,29.27,0,0,0-1.2,7.37c-1.29,1.44-4.23,3.88-4.6,5.83l.24.61c-1.94,1.09-4.09-.14-6.13,1.09a3.83,3.83,0,0,0-3.79-3.14l-1.52,1.19-1.41.08-2-1.49a10.51,10.51,0,0,0-4.49,1.51l-1.59-.23-1.36,1.19-1.16-1.05a5.13,5.13,0,0,1-4.39.39c-2.7,2-9.63,4.94-13,4.84-.16,0-2.52-.69-2.88-.79l-1.08.38c-.71.76-1.85,2.77-1.52,3.89l-2.84,2.71-1.36-1.68-1.9-.21-.67-.59-.78,0-.74.84-1.4.39a41.45,41.45,0,0,0-9-2.82l-.61-2.51-2.77-1.58a5,5,0,0,1,.21-1.76l-5.13-5c-.46-2.49-.81-5.93-2-8.15-.8-1.43-1.89-2.48-2.71-3.81-2.14-3.5-3.11-11.08-3.55-15.1a13.35,13.35,0,0,1-3.31-1.13,13.89,13.89,0,0,1-3.22,1.78,16.79,16.79,0,0,0-5.47-1.58c-1.49-2.16-4.64-6.34-4.65-9.09a5.43,5.43,0,0,1-2.05-2.58l-1.56.42c-1-2-8-6.72-10-6.38-1.31,1.2-1.51,3.65-1.74,5.34l-1.23.56-1.31-.71c-2.34.25-4.74.61-7.08.75-1.49.09-3.13-.21-4.59,0a15.75,15.75,0,0,0-2.94,1.14c-.64,3.5-2.5,3.77-1.9,7.58-4.69.29-7.62-1.07-11.31-3.72l-3.76.55-1,2.29a19.81,19.81,0,0,1-7.35,1.43c-1.87,1.08-3.85,3.93-4.68,5.86l-3.08,1.32L691,272a9.48,9.48,0,0,1-.29-4.43,41.44,41.44,0,0,0-3.93-2.12c-1-.38-2.47-.06-3.51-.4-2-.65-3.08-1.48-5.49-1.7a9.84,9.84,0,0,1-3.4,1.18,6.79,6.79,0,0,1-2.26,1.75,7,7,0,0,0-3.51-.41l-.84-.73,0-2.07-2.28-3.34-1.43-.06.21-1.61-1.52-1.32-2.72-.45a18.48,18.48,0,0,1-4.78,1.92c-1.42-.15-4.34-2.85-4.77-4.17-.68-2.08-.87-2-2.26-3.61-4.15,1.73-10.68,2.58-15.17,2.82a39.11,39.11,0,0,0-7.4.68,16.37,16.37,0,0,0-1.62,1.71,27.47,27.47,0,0,1-6.39-.66,4.61,4.61,0,0,0-.92,2.61l-3.15.23-2.36,2.4-2.69,0-1.66,1.08-5.06-2a5.34,5.34,0,0,0-2.44,3.51,6,6,0,0,1-3-1.68,6,6,0,0,0-4,.94,6.33,6.33,0,0,0,2,3.66l.28,3.79c-1.9,3.08-2.9,3.69-3.58,7.27a31.78,31.78,0,0,1-3.1,2.93l.19,2.53c-2.59.62-6.85,5.93-8.55,8.27a13.47,13.47,0,0,0,.53,5.05c-.78,1.3-1.56,2.61-2.23,4,.53,1.73,1.09,3.73.09,5.4-2,.81-2.81,2.09-3.82,3.79l-6.54,11c-1.59,2.69-1.56,5.13-4.71,7l-2.35.19c-1.69-1.12-6.37-4-8.35-4.12l-.72.85a8.06,8.06,0,0,1-.78,4.19,5.31,5.31,0,0,1-3.94,0l-1.82.94-.5,1.63-1.35.9c-2.51-.7-5.09-4.22-7.35-3.4a9.1,9.1,0,0,0-.24,1c.17,2.15.89,7-.41,8.94-.07.12-2.26,2.22-2.48,2.43a28.47,28.47,0,0,1-4,3.29c-1.17.74-3.93,2.78-5.27,3l-.07,1.11,1.9,2.08-5.14,2.64-3.17-2.29c-1.46,1.48-3.83,1.18-5.63,2.37a35.21,35.21,0,0,0-3.28,2.18c-3.71,3.14-5.38,7.34-10.67,8l-.73-1.21a10.62,10.62,0,0,1,1.71-4.12,15.12,15.12,0,0,0-6.59-5.66l-2,.17-1-.86-1.1-.07-.69,1.17a4.88,4.88,0,0,1-2.91,1c-.09,0-2.6,1.53-2.85,1.67-.09.06-1.51.27-1.7.3a7.62,7.62,0,0,1-1.55-3.52,12.66,12.66,0,0,0,2.18-4l-.46-1.87c-2.47-1.18-3.45-4.26-6.09-5.05-3.58-.15-5.72,3.86-9.65,1.3l-1.45-2.26c.11-1,0-3.2-.66-4.08-2.77-1-5.94-1.94-8.91-1.78-2.18,1.46-3.15,3.71-5,5.34-.1.08-2.27,1.12-2.53,1.24a4.6,4.6,0,0,0-.53.37,16.31,16.31,0,0,0-6.52-.39,15.94,15.94,0,0,0-1.59,1.91c-1.24,2.29-1.43,6.55-2.89,7.94.11,1.86.54,4.76-.05,6.46l-2.43,2.58-.05.7a25.25,25.25,0,0,1-.2,3c-.06.32-.6,1-.68,1.34-.58,2.58.35,5.48-2.55,7.08l-.89.9-1.45-1a6.13,6.13,0,0,0-.15-3l-.9-.16c-1,1.84-6.22,4.08-8.26,4.51l-2-1.36c-1.84,1.38-10.18-.05-14,1.45l-.81,1.07-1.36.33-1.23,1.26a4.19,4.19,0,0,1-2.66-.7L390.77,380c-1.33.31-2.1-.95-3.18-1.16a35.94,35.94,0,0,0-3.6,0,26.87,26.87,0,0,1-6-.89c-1.29-.47-2.44-1.59-3.92-1.39-.79.1-1.59.52-2.39.63a22.24,22.24,0,0,1-5.68-.53,8,8,0,0,0-3.68,2.53l-1.52-.05c-1.25-.83-3.74-2.94-5.28-2.74l-5.54,2.89a5,5,0,0,1-3-2l-1.72-.15A9.5,9.5,0,0,1,343,374.4l-.72-.11-1.3,1.06a21.54,21.54,0,0,1-2.68-.3c-3.23,3.24-3.69,4.53-8.09,6.57-3.12-.34-6.72-.49-8.68,2.56a4.18,4.18,0,0,1,1.95,2.53,3.14,3.14,0,0,1-1.67,1.93c-.36,1,.69,3.23.37,5.11l-.33,1.16-1,.3c-.73,2.25-3.49,1.38-4.64,3-.43,3.69-2.45,21.47-.68,25a3.71,3.71,0,0,0,.43.55,42.62,42.62,0,0,1,2.16,3.68c1.05,1.65,2.78,1.22,3.68,2.5.57,4.62,2.63,3.61,5.06,4.76,1.07.89,2.54,4.43,1.75,5.86-2.43-.57-5-1.42-7.46-1.74-1.14-.15-8.69,0-10.11.48a22.09,22.09,0,0,0-3,1.75l-1.09,5.46c-3.71,1.8-6.25,5-9.07,7.9-5.54.22-5.26.74-10.57-1.22-1.7-.63-6-2-7.52-2a5.67,5.67,0,0,0-1.67.52l-3.35,1.05c-2.33,1-3.95,3.1-6.84,2.57l-3.21-2.64-4.56-.43-.91.63a42.22,42.22,0,0,1-4.29,3c-3.17,1.63-6.9,1.49-10.25,2.27-3,.68-5.89,2.38-9.09,2.09-1.11-.11-2.5-1-3.62-1.22a34.16,34.16,0,0,0-5.39-.78c-2.5-.06-5.32.69-7.79.46l-3.92-1.13c-4.4-1.27-9.85-3.24-14.45-3.54-2-.13-6.93.08-8.68.93s-1.84,2.54-4.31,1.31a30,30,0,0,0-6-2.5L178.18,458c-2.73,0-3.76-.33-6.18,1-2.24.22-3.43-.87-5.44-1.32-1.49-.33-3,.22-4.46.32a31.18,31.18,0,0,1-4.63-.18,6.2,6.2,0,0,0-1.14-.1,26.07,26.07,0,0,0-3.51.87l-2.68-2.27a55.6,55.6,0,0,1-7.91-1.56,35.2,35.2,0,0,0-2.21-4.56c-1.51-2.08-6-4.55-8.13-5.95-2.56-1.65-4.27-4.07-7.35-5l-4.93.47c-2.44-3-5.25-5.76-7.63-8.81-1-1.35-1.93-3.12-3.1-4.34-1.63-1.7-3.86-3.31-5.66-4.85-.07-.06-.73-1.3-.81-1.43a50.71,50.71,0,0,0-3.48-6.22c-1.64-2.09-4.23-4.17-6.14-6.05-2.54-2.49-4.79-5.47-7.15-8.17-.47,0-3.37.05-3.45,0a13,13,0,0,1-3-1.24A14.64,14.64,0,0,1,77,396.23l-6.1.68c-1.44-2.68-2.91-5.3-4.48-7.91-4.08.71-5.21,1-9.49.6-.05,0-4.83,2.13-4.9,2.17-.7-.36-2.62-2.8-3.2-3.48a6.9,6.9,0,0,1-4.25-1.76c-1.21,1.06-3.9,2.14-5.37.94L39,385.62c.48-.75,1.71-3.25,1.28-4.19L39,380.26l0-.83.91-1L39,375.89A22.07,22.07,0,0,1,42,369.77l-.15-.68a14.17,14.17,0,0,1-3.61-1.43c-.52-2.66-2-7.61-4.27-9.13a26.85,26.85,0,0,1-2.48-1.38c-2.63-2.24-2.89-3.83-6.9-5.65a30.26,30.26,0,0,0-1.12-4.81c-.57-1.84-1.06-3.82-1.75-5.61-.78-2-2.65-4.55-2.55-6.88a32,32,0,0,0,.07-6.26l-.9-1.14-3.6-.41c-.83-1.53-1.78-4.07-3.36-4.87L10.24,318l1.64-2,.2-1.82L11,312.43c-2.94-.57-4.13-2.12-5-4.92A7,7,0,0,1,2.22,307a11.83,11.83,0,0,1-1-6.48c0-.07,1.84-2.46,2-2.69.6-.8,1-4.59.9-5.28-.35-2.11-2.36-5.86-1.79-7.91l1.4-2.07-.14-.83.55-1.18A8,8,0,0,0,7,277.17l1.81-.92.34-3.19c.41-.67,2.45-1.31,3.15-1.46.09-.86.5-3.24,1.15-3.89l3.09-1.48L18,261c-.61-1-.2-2-.37-2.44-.49-1.29-1.41-2.52-2-3.79-.29-.66-.1-6.66-.28-8l1.58-1.52.22-2.22-1.83-.36c1.07-2.31,3.83-7.75,4.23-10.07.26-1.48.3-3.06.51-4.56a6,6,0,0,1,1.05-3.25c1.44-1.84,3.9-2.71,4.32-5.15,1.12-6.42,3.32-12.91,8.29-17.37a34.63,34.63,0,0,0,4.8-4.51c2.49-3.19,4.23-5.95,7.53-8.46,1.94-1.48,5.73-3.91,7.81-4.46,1.83-.49,4.05-1.61,5.81-1.88.16,0,2.77.19,3.1.22.11,0,2.38,1,2.81,1.23,6.32,2.71,13.62,10.24,20.67,9.77,9.36-.63,9.93-7.73,18.32-5.64,1.5,1.11,2.93,2.29,4.35,3.49,6.06,5.11,11.85-2.26,17.14-4.68,1.88-.86,9.24-2.11,10.89-3.67s4.24-7.39,5.07-10c.91-2.83,3.72-6.92,6.57-8.09.56.13,5.1.77,5.62.78,1.52,0,7.56-1.55,8.63-2.28,1.87-1.29,3.81-4.16,5.24-6,2-2.54,10.07-12.49,13.2-13.8,1.94-.8,4.3-.28,6.39-1,1.83-.64,3.85-2.27,5.74-2.32,2-2,3.79-4.14,5.72-6.19,7.42-7.86,4.7-13.26,7.93-22.21a2.05,2.05,0,0,1,.18-.49c1.24-1.93,2.87-3.53,4.1-5.4.75-1.13,2.56-8.12,3.07-9.48-1.68-2.6,0-5.16.62-7.74.15-.64,0-1.51.19-2.12.53-1.64,2.23-6.05,3.61-7.21,2.2-1.86,6.73-3,9.43-3.75,3.25-.83,6.36-2.18,9.56-3.19,2.22-.69,4.64-1,6.81-1.71,2.77-.94,8.61-3.92,10.47-6.18a21.85,21.85,0,0,0,1.7-3.13c1.33-2.46.67-5.86,1.73-8.5a7,7,0,0,1,2.08-2.55c1.16-1,2.5-1.89,3.57-3a92.16,92.16,0,0,0,8.66-10.93c.59-.84.91-1.84,1.45-2.71,3.88-6.27,5.76-6.3,12.09-8.11a38.27,38.27,0,0,0,6.83,2.27,67.93,67.93,0,0,0,7.42,1.14C302.06,29.9,324.57,21.66,325.51,21.2Z"/></g><g id="svg2"><path id="path13" class="cls-2" d="M251.39,70c1.09,1.19,1.68,2.72,2.74,3.93,3.47,4,5.47,8.69,8.5,12.93.87,1.22,1.84,2.37,2.71,3.59,2.53,3.54,2.55,8.29,5.3,11.6a22.34,22.34,0,0,0,7.39,6.17c1.55.77,3.92,1.34,5.19,2.42,1.55,1.33,1.39,2.84,2.22,4.46.43.86,1.12,1.22,1.71,1.91a1,1,0,0,1,.27.78,2.59,2.59,0,0,1-.75,1.23c-.05.06-2,5.14-2,5.21a3.3,3.3,0,0,0,0,1.13c.67,3,3.39,4.25,4.83,6.71.68,1.15.28,3.55.38,4.9a23.87,23.87,0,0,1,.13,5.85c-.69,3.83-5.75,6.59-9.14,7.49-1.06.28-2.36,0-3.34.47-2.36,1.08-2.05,4.87-3.55,5.59-2.39,1.16-6.8-.77-5.19,3.78.93,2.65,12.79,2.93,14.41.63,1.06-1.5.92-5.09,1.66-5.8s2.67-.41,3.36.15c.38,1.19-.17,1.8-.15,2.94l.34.35c1.3.28,4-2,5.84-1.79,1.62.15,2.48,1.79,4,2.13,4.62,1,7.31-2.85,10.14,3.69.2.46-1.74,3.2-1.87,4.14a22.08,22.08,0,0,0-.23,5.26c.09.84.91,1.38,1.1,2.08.34,1.3-1.83,3.92-2.09,5.4-.24,1.31-.35,5.62.7,6.45s2.46,1,3.66,1.55c2.07,1,5.7,3.88,6.74,5.91,1.33,2.61.58,5.67,2.16,8.25,1.22,2,8.53,4.92,8.5,6,2.21-1.12,3.69-3.79,5.88-4.57,1.28-.46,3.05,2.31,3.41,3.29a12.89,12.89,0,0,0,2.95,3.45c2.73,2.18,8.29-.78,11-1.65,1.36-.44,2.74-.26,4-1.13.55-.39.74-1.48.84-2.1.82-4.8-1.13-6.15-3.26-10-.77-1.4,2.2-3.81,2.54-5.31.09-.4-1.56-1.16-1.9-1.89-.76-1.63-.05-2.58,1.1-3.69s6.21-7.47,7.14-7.34a14.92,14.92,0,0,1,2.53.73c2,.65,5.87.26,8.05.05,2.91-.28,5.29-1.72,8.14-2a9,9,0,0,0,3.08-.63c4.75-2.23,5.56-2,10.38-.59a1,1,0,0,1,.6.45c.74,1.15.46,3.36.23,4.64-.89,4.87,9.3,1.36,11-.18,1.26-1.11.62-4.14,3.63-6.59,1.48-1.19,3.26-1.54,4.93-2.37s2.24-2,3.63-3.2,7.07-1.05,8.37-1.14c2.38-.18,4.17-2.14,6.58-2.34,4.08-.35,8.14-1.25,12.19-1.56,3.3-.24,7.36-1.15,10.62.2,1.31.54,2.21,1.84,3.25,2.75a10.46,10.46,0,0,0,2.86,2.28c1.74.67,3.15-1.88,5.06-.1,1.56,1.45,4.93,5,7,5.34s7.05-3.5,9.69-4.18c4.59-1.17,3.35,2.72,8.84,2.18,5.93-.58,11.82-1.09,17.79-1.54,1.29-.09,1.47,0,1.27-1.38l.25-.42c2.6.92,2.66,3.16,5.64,2.94"/><path id="path15" class="cls-2" d="M327.15,207.35c-.27.6-.28,1.24-.57,1.86-.39.83-1,1.55-1.36,2.38-1,2.31-3.52,3.28-4.41,5.76-.51,1.41-.48,3.25-1.64,4.31-1.69,1.55-4.67,1.2-6.4,3.19s-2.28,11.53-4.86,14.27c-2.23,2.36-6.56-6.08-11.73-1.6-1.33,1.15-2,3.93-3,5.47-1.35,2.07-3.72,3.32-4.9,5.55-.54,1-.25,2.73-.91,3.27-1,.81-3.15.79-4.41.88-3.86.27-9.61-2.08-11.69,2.72a29.66,29.66,0,0,1-1.41,2.82c1.62,4,.4,3.71-1.11,7.24-.12.27-1.16,2.63-.43,2.53,2-.27,5.08-3.91,7.29-2.09,2,1.68,2.46,6.33,1.91,8.74-.25,1.11-1.48,3.29-1.31,4.17.27,1.34,1.42,1.12,1,3.56a4.67,4.67,0,0,0,0,2.77,8.85,8.85,0,0,0,1.5,1.74c2.92,3.24,4.46,4,4.95,8.6.12,1.16.43,4,.13,5-.77,2.55-6.32,5.52-7.42,8.23-.33.79-.55,1.89.22,2.51a3.57,3.57,0,0,0,4-.58c1.8-2.34,3-4.85,6.1-5.85,3.67-1.2,9.18,2.72,11.73-.1,2.93-3.23.84-4.51,1.65-8s6.31-9.39,10.14-9.54a1.49,1.49,0,0,1,1.43.7c1.28,2.12,4.65,8.56,7.07,10.66,1.2,1.05,1.83,2.6,3,3.63,4.26,3.68,1.64,5.29,3.39,8,.94,1.45,3.1,1.6,3.62,3.46.36,1.32-.28,7.08-1.23,8.14s-4.62,1-4.5,2.65l.67,8.83c.15,1.91.12,6.49-1.34,7.87a11.22,11.22,0,0,1-1.88,1.22c-1.08.66-1.48,2.3-1.64,3.48a7.33,7.33,0,0,0-.07,1.93c0,.08.06.57.22.49,1.66-.81,2.45-2.12,4.52-2.28,5.25-.41,10,7.88,17,3.91,2.29-1.29,3.63-4.6,6-6.27,1.91-1.34,6.4-.44,8.88-1,1.68-.38,3.4-3.38,4.7-3.22a7.1,7.1,0,0,1,2.45.59,1.4,1.4,0,0,1,.72.81c.55,1.74-2.72,4.35-2.56,6.66.19,2.77,4,5.76,2.39,9.6-1.14,2.68-9.34,5.76-9.15,9.41.06,1.15,0,2.32.08,3.47,0,.69,2.14,2.26,2.24,2.93"/><path id="path17" class="cls-2" d="M96.35,191.09c-.73,1.76-1,4.32-2.48,5.67-1.9,1.72-5.31,3-6.5,5.2a1.47,1.47,0,0,0-.2,1.22c.19.51.84.67,1.32.74a5.82,5.82,0,0,0,1.91.07c2-.35,6.17-6.3,8.23-4.71.65.51,1.26,3.85,2,4.94s1.87,1.2,2.93,1.9c.91.6,5.48,5.82,5.31,6.82-.13.79-2,1.63-2.52,3a6.45,6.45,0,0,0-.4,2.42c-.06,6.54,3.3,6.33,5.29,11.89A25,25,0,0,0,113,235c.54.88,1.32,4.11,2.5,4,1.89-.13,1.75-4,7.16-3.16,1.17.18,2.39.64,3.57.26a2.24,2.24,0,0,0,1-.68,18,18,0,0,0,1.89-2.21c1-1.71,0-3.29.84-4.34,1.43-1.79,5.65-.4,7.73-.78,2.57-.46,4.07-2.92,7.18-2.95,2.11,0,2.54,3.12,3.39,4.63a20.69,20.69,0,0,0,4.2,4.21,21.89,21.89,0,0,0,4.47.82c4.63.64,3.58-3.49,6.5-2.51,1.27.42,1.07,1.68,2.9,2.35,1.59.58,2.86,1.41,4.38,2.1s3.23.69,4.85,1.22c2.32.75,4.16,3,6.52,3.29,1.2.13,4.91,0,5.19,1.55,7.46-2.95,8.38-7.2,6.13-14.61-1.15-3.78-3.7-3.68-2.86-8.87.18-1.07.62-2.08,1.83-2.21,2.18-.22,2.5.67,4.14,1.63,1.15.67,9,2.33,10.85,2.67.47.08,3.21.56,3.43.94.44.79.69,1.84,1.09,2.68a56.81,56.81,0,0,0,4.58,7.27c2.15,2.56,12.76,6.63,14.25,9.36.78,1.43-2.73,4.41-3.58,5.43-2.13,2.53-.09,3.29-.32,5a6,6,0,0,0-.06,1.7c.49,3,5.16.26,8,2.16,4,2.66,2.62,9.72,7.54,14,1.77,1.52,2.73-1.68,4.25-2s2.59,2.23,3.87,2.42a.92.92,0,0,0,.95-.55c.55-.92.88-2.5,1.76-3.16,2.52-1.88,12.25-12.86,15.73-10.34.55.39.68,1.26.93,1.86"/><path id="path19" class="cls-2" d="M187.32,242.86c1.23,1.88-1.06,3.85-1.73,5.5-.48,1.16-1.17,2.3-2.56,2.39s-3.89-1.4-5.55-1.64c-2.35-.36-2.69.91-4,2.47a13.44,13.44,0,0,1-2.34,1.69c-.71.51-1.64,1.19-1.57,2.19.1,1.38.93,2.65.88,4.08,0,.95-1.1,2.17-1.31,3.4a2.69,2.69,0,0,0,.07,1.35,1.56,1.56,0,0,0,.93.93c3.34,1.38,3.84,1.84,6.39,4.35,1.82,1.79,2.74,1.25,4.57,2.48,1.37.93,6.89,5,5.55,6.74-.71.94-1.09,2.07-1.84,3-1.72,2.09-3.28,4.22-5.06,6.27-1.43,1.65-2.08,3.7-3.43,5.44a40,40,0,0,0-4,6c-1.34,2.57-1.76,5.59-2.84,8.32-1.32,3.29-4.65,6.65-3.27,10.49.37,1,2.36,2.76,3.17,3.56-.14.89-.2,1.79-.31,2.69-.28,2.27-1.92,4.8-1.18,7.06,1,3.12,5.74,2.48,4,8.3-2.69,9.05-10,1.86-11.21,3.14-2.87,3.1,2.71,4.65,1.51,7.57a2.64,2.64,0,0,1-2.23,1.54c-.78,0-7.13-1.65-7,.52,0,.45.57.91.89,1.18.68.58,3.78,2.8,3.88,3.5a3.49,3.49,0,0,0,.38,1.42c.58.94,1.67,1,2.45,2.52,2,3.89-.35,3.25-.06,6.7a21.77,21.77,0,0,0,.14,2.89c.34.84,4.48-.77,5.64-.77,2.93,0,2,3.17,4,4.69.54.41,1.52.86,1.59,1.62l.52,5.57c.16,1.78-.38,3.49-.23,5.27.27,3.29-.67,6.37-.18,9.77.27,1.85,2,2.55,1.78,4.09-.34,2.79-3.73,3.51-3.91,4.87-.13,1,1.64,1.61,2,2.6s-1.74,6.22-2.68,7.07c-3.86,3.5-7.86,3.7-10.76,8.38-1.69,2.73-.31,3.68-1.3,6.17-.52,1.33-3.24,5.28-4.88,4.77-1-.32-1.37-1.82-2.47-2.4a1.6,1.6,0,0,0-2.24.8c-1.93,3.12,1.28,9.41-2.13,14.58"/><path id="path21" class="cls-2" d="M21.25,262c5.2-.48,6.6-1.41,10.64-4.21A9,9,0,0,1,34,256.64c2.87-1,5.53-1.58,8.45-2.33,8-2,7.16,3.33,10.19,4.24,2.12.65,6.58-2.78,8.65-3.2,1.61-.33,3.33-.15,4.86-.79,2.83-1.2,4-5.63,6-7.72,1.65-1.71,5.52-1.47,6.81-2.26a3.41,3.41,0,0,0,1-1.77c.47-1.17,5-7.44,5.87-8a1.51,1.51,0,0,1,1.32-.28c2.85,1.07,6.09,7.15,4.25,9.55a11.7,11.7,0,0,0-1,1.88c-.24.5-.67,1.44-1.25,1.6-.85.25-5.1.76-5.29,1.42-1,3.38-1.51,5.17-4.49,7.39-1.11.83-2.44,2.78-.83,3.81a16.65,16.65,0,0,1,3.31,2.73c.87.93,3.35,1.81,3.66,2.84.16.53-.65,2-.77,2.72-.6,3.32-6.78,4.36-5,8.87a10.75,10.75,0,0,0,1.09,2c1.16,1.82,3.51,2,5.41,2.53,1.53.46,2.09,1.81,3.76,2.21a7,7,0,0,1,1.8.58c.58.38.46,1.81,1.09,2.68,1,1.38,4.75,5.58,5.06,6.72s.54,3.11,1.25,4.12c1.07,1.52,4,.67,5.51,2.51.67.85,1.86,1.3,2.41,2.12.8,1.19-2.34,6.13-2.81,8.38a16.29,16.29,0,0,0-.05,5.44c.08.61.31,1.68.93,1.95,2.29,1,7.49,1.38,8.79,4,.85,1.71-7,6.05-7.26,9.06-.34,3.86,5.58,2.27,6.92,3.72.65.69-1.68,2.58-1.91,3.54-.28,1.2,2.7,2.94,3.51,3.9a30.76,30.76,0,0,1-3.39,3.81c-1.55.86-3.1,1.48-4.6,2.49-1.8,1.21-3,3-4.73,4.14a4,4,0,0,1-1.49.7,1.39,1.39,0,0,1-1.29-.38c-1.41-1.46-5-8.62-7.24-6.74-1.13,1,1.26,5.58,1.41,7,.12,1.17.54,2.72,0,3.8s-5.42,1.67-6.77,1.65c-2.13,0-7-.74-6.79,2.79.12,1.69.08,2.33,1.72,3.11a37.53,37.53,0,0,0,4.13,1.47,1.56,1.56,0,0,1,.28,1c-.19,1.29-5.17,5.1-6.18,6.31-2,2.46-5,6.36-8,8-.74.42-.84,1.85-1.5,2.41"/><path id="path54" class="cls-2" d="M493.83,100c.71,2.8,2.8,4.77,3.54,7.46.59,2.13.33,9.22,1.21,10.21,1.66.3,3.89-3.29,5.81-2.56,2.59,1,2.3,4.82,5.21,5.27,1.75.27,3.21,1.22,5,1.13a25,25,0,0,1,4.62.48c1.36.5-.8,5.49-1.13,6.76-.9,3.59,1.14,13.13-2.9,14.88-2,.86-4.22,1.05-6.21,2,.78,1.12,1.28,2.4,2.06,3.52,1.59,2.25,5.87,5.24,6.72,7.82.37,1.14.28,3.88,1.3,4.57s4.88,1.32,4.6,3.13a49.23,49.23,0,0,1-5.55,4.8,5.4,5.4,0,0,1-1.82.4c.93,1.62,6.63,2.79,8.44,2.68,1.63-.11,3.26-.24,4.89-.22,3.78,0,6.21,1.16,10.29.79,2-.18,1.44-2.16,2.67-2.47,1.71-.43,6.66,3.91,8,5.05,1.63,1.41,3.86,1.81,5.46,3.2v.54c-.73.66-2.44.91-2.86,1.84-.93,2.07-.45,4.22-.39,6.38a1.34,1.34,0,0,1-.64,1c-1.88,1.47-5,1.31-6,3.74s-.16,5.23,0,7.55a9.72,9.72,0,0,1,0,2.47c-.45,2.32-4.95,6.43-2.52,10.72,2.26,4,6,2.55,8.63,3.5s6.07,4.79,7.47,7.18c.91,1.56,1.15,3.4,1.71,5.09.47,1.41,1.58,2.54,1.82,4,.48,2.82-.95,5.46.7,8.24s4.73,2,7.29,2a.62.62,0,0,1,.72.47c.79,3.53-12.7,20.86-6.71,28.46a12.89,12.89,0,0,0,1.54,1.68c3.87,3.43,2.49,3.81,7.84,2,.88-.31,1.39-1,2.22-1.3,2-.82,2.92,4.32,4.25,3.37a13.26,13.26,0,0,0,1.6-2.17c1.07-1.37,3.45-1.28,5.06-1.37a5.81,5.81,0,0,1,3.35,1.21"/><path id="path56" class="cls-2" d="M556.16,179.27c5.12-1.71,4.25-3.76,6-7.43.8-1.69,5.57-3.16,6.94-4.68a2,2,0,0,0,.45-1c.54-4-6.16-2.24-6.14-3.9,0-.58.06-1.16.1-1.73a3.16,3.16,0,0,1,1.81-2.32c2-1.18,4.22-1.63,6.24-2.89,1.68-1,11-6.92,12.05-7.19a5.92,5.92,0,0,1,2.68,0c1.78.39,3.11,7,5.62,6.59.89-.15,2.3-3.9,2.13-4.74s-1.18-1.31-1.33-1.94a3.44,3.44,0,0,1,2.47-.31c3,.29,5.89.71,7.61,3.41a9.9,9.9,0,0,0,1.59,2.33c1,.82,6.08-.92,7.56,0,2.66,1.71-.22,8,5.46,7.71,2-.11,7.4-4.23,8.11-6s.67-3.36,2.92-4c3.35-1,3.08,4.25,6.44,4.72a16.7,16.7,0,0,0,3.08-.08,3.25,3.25,0,0,0,1.68-.39c1.53-1.07-.57-6.09.56-7.13.63-.58,3.78,0,4.25.66,1,1.44.21,2.58,2.93,2.42.81-.05,1.14-.52,1.82-.8.49-.19.49,2.28.5,2.51.06,1.05.17,2.33,1.42,2.56,2.61.48,4.4-.87,7.48.38,3.95,1.6,1.5,2.47,7.77,3.55,1.64.29,2.93-.92,3.67-.92s3.18-.08,3.55.42c.82,1.13.71,2.82,1.64,3.91a22,22,0,0,0,1.78,1.55c1.67,1.52-.76,3.61,6,8.08,1-.18,3.21-1.09,4-.94,2.71.5,3.93,3.16,6.13,3,2-.13,6.11-2.7,6.93-2.52,3.13.68,3.73,6.32,5.54,6.81,1.27.33,2.43-1.73,3.18-2.5,1.13-1.17,3.26.58,4.4,1.11s2.32.17,3.25.71c2.73,1.61-1.27,4.36-1.92,5.16-1.31,1.64-.6,4.82.88,6.16.84.77,1.54,1.93,2.69,2.25s5.32.46,6.33-.11c2.09-1.19-.91-4,2-4.85,2.27-.71,7.56.25,8.93-1,4.12-3.62-3-16,7.3-8.9.32-3.8,2.59-3.89,4.12-.69a5.16,5.16,0,0,0,.53,1.08c1.11,1.31,5.39-3.91,7.07-1,1.27,2.19,1.63,5.82,2.43,8.31.59,1.85,3.1,2.71,4.27,4.15s-.56,5.42.9,6.75c1.15,1,3.23,1.16,4.7,1.38,3.59.54,4.2,2.75,6.31,3.37,3,.88,4.19-1.17,8.3.28,2.92,1,5.08,3.43,8.07,4,3.29.63,8-3.12,10.32-5.22,1.93-1.74,6.85.14,7.35-2.3.77-3.71-1.21-4-2-6.72-.7-2.29.33-6.58.21-9.19-.16-3.09-4.48-4.2-2.24-8.91.52-1.09,1.57-.81,2.57-.86.21-.47,1-.41,1.46-.38,3.82.27,8.83,2.55,12.79,3.34,3.35.66,8.2,3.86,9.28,7.21.89,2.79,2.7,3.59,5.4,4.1,2.51.48,5-.81,7.41-.35a15.42,15.42,0,0,0,3.39.27c1.22-.06,2.45-.17,3.67-.24,1.7-.1,3.09-1.17,4.75-1.43,1.49-.24,3.83.63,4.87-.73s.18-6.38.62-8.52a3.71,3.71,0,0,1,.53-1.36c1-1.43,2.59-1.66,4.16-1.8a25.43,25.43,0,0,0,3.56-3.08c1.47-1.61,1.28-3.31,3.46-4.52a7.18,7.18,0,0,1,3.45-.87c8.24,0,.38,6.67,3.45,12.18.57,1,1,3.38,2,3.86.73.33,5-.91,6.21-1.1a43.84,43.84,0,0,1,14.5.26"/></g></svg>